<?xml version="1.0" encoding="UTF-8"?>
<svg xmlns="http://www.w3.org/2000/svg" viewBox="0 0 591.43 416.74">
  <defs>
    <style>.cls-1{fill:#004989;}.cls-2{fill:#93d500;}</style>
  </defs>
  <g id="Layer_2" data-name="Layer 2">
    <g id="Layer_1-2" data-name="Layer 1">
      <path class="cls-1" d="M62,303.75c-14.91,0-26.7-2.15-35-6.4S12.2,287.4,8.15,280.5a53.89,53.89,0,0,1-7.09-22.81c-.7-8-1.06-16.14-1.06-24.32V127H43.66v93c0,5.55.14,11.06.41,16.37A40.66,40.66,0,0,0,47,250a20.63,20.63,0,0,0,7.33,9.17c3.23,2.27,8.22,3.43,14.81,3.43a77.26,77.26,0,0,0,13.29-1.21,37.14,37.14,0,0,0,12-4.26l4.48-2.57v41.25l-1.53.85c-4.76,2.68-11,4.56-18.42,5.59A131.41,131.41,0,0,1,62,303.75Zm161.75,0A116.78,116.78,0,0,1,180.6,296a100.4,100.4,0,0,1-33.85-21.78,96.66,96.66,0,0,1-22-33.68A116.86,116.86,0,0,1,117,197.38,118.5,118.5,0,0,1,124.72,154a97.27,97.27,0,0,1,55.43-56.3c13-5.28,27.67-8,43.61-8a117.32,117.32,0,0,1,42.73,7.94,95.14,95.14,0,0,1,35.64,24.41l2.05,2.22-32.85,29.94-2-2.1a76.56,76.56,0,0,0-21.13-15.92c-7.23-3.55-16-5.34-26.09-5.34-9.81,0-18.45,1.79-25.67,5.34A52.21,52.21,0,0,0,178.2,150.9,66.88,66.88,0,0,0,167,172.53a86.2,86.2,0,0,0-3.84,25.69,71.37,71.37,0,0,0,4.41,25.1,63.09,63.09,0,0,0,12.38,20.59A57,57,0,0,0,199,257.63a61.34,61.34,0,0,0,25.14,5c10.09,0,18.79-1.8,25.86-5.34a67,67,0,0,0,20-15.83l2.12-2.39,31,31-1.9,2.11A87.68,87.68,0,0,1,266,296.45,122.71,122.71,0,0,1,223.76,303.75ZM438.26,126.9a69.65,69.65,0,1,0,69.64,69.64A69.64,69.64,0,0,0,438.26,126.9ZM372,416.74H328.32V94.36H372v23.71a76.67,76.67,0,0,1,26.5-19.67,95.9,95.9,0,0,1,40.39-9.06c15.66,0,30.07,2.75,42.82,8.19a95.55,95.55,0,0,1,32.82,22.9,103.23,103.23,0,0,1,20.91,34.26,124.81,124.81,0,0,1,0,84.12,101,101,0,0,1-20.92,34.07,96.75,96.75,0,0,1-32.81,22.68c-12.75,5.43-27.16,8.19-42.82,8.19a95.52,95.52,0,0,1-41.47-9.29A74.53,74.53,0,0,1,372,275.23Z"></path>
      <polygon class="cls-2" points="42.73 55.51 42.73 0 0 0 0 94.3 97.65 94.3 97.65 55.51 42.73 55.51"></polygon>
      <path class="cls-1" d="M559.19,91.16v4.32H551V118h-4.78V95.48H538V91.16Z"></path>
      <path class="cls-1" d="M569.83,91.16,577,110l7.23-18.8h7.2V118h-4.54V95.71h-.08L578.66,118h-3.33l-8.15-22.28h-.07V118h-4.55V91.16Z"></path>
    </g>
  </g>
</svg>
