<svg version="1.1" id="Layer_1" xmlns="http://www.w3.org/2000/svg" xmlns:xlink="http://www.w3.org/1999/xlink" x="0px" y="0px"
	 width="100%" viewBox="0 0 1591 770" enable-background="new 0 0 1591 770" xml:space="preserve">
<path fill="none" opacity="1.000000" stroke="none" 
	d="
M1592.000000,138.000000 
	C1592.000000,348.926453 1592.000000,559.852905 1592.000000,771.000000 
	C1396.641846,771.000000 1201.283569,771.000000 1005.458557,770.638000 
	C1003.506348,768.862183 1002.107544,767.341797 1000.521301,766.051819 
	C989.864807,757.386475 979.211731,748.715942 968.473877,740.151978 
	C956.100403,730.283447 943.607422,720.564697 931.228577,710.702881 
	C920.615723,702.247925 910.126221,693.638123 899.517395,685.177917 
	C887.013794,675.206726 874.410400,665.360718 861.906006,655.390564 
	C849.765869,645.710938 837.719299,635.913879 825.589294,626.221497 
	C812.836609,616.031616 800.009705,605.934570 787.260010,595.740906 
	C776.661926,587.267395 766.169922,578.660889 755.556030,570.207336 
	C743.175903,560.346863 730.707886,550.596680 718.290039,540.783508 
	C707.407471,532.183594 696.501953,523.612305 685.678833,514.938171 
	C673.482300,505.163422 661.366638,495.287811 649.272644,485.502045 
	C657.499817,482.203674 665.874451,479.514709 673.637451,475.609802 
	C697.862366,463.424103 718.963989,447.338959 735.915649,425.806335 
	C747.080078,411.624939 755.999023,396.307281 762.627563,379.668976 
	C771.937805,356.299347 775.780884,331.876923 774.931396,306.762787 
	C774.727356,300.729919 773.698669,294.722473 772.997620,288.709381 
	C771.068176,272.161591 766.549500,256.287964 759.572510,241.218628 
	C748.762939,217.871429 734.449768,197.049408 714.736023,180.116425 
	C704.180298,171.049652 693.085327,162.921158 680.816895,156.336807 
	C652.903137,141.355713 623.073547,134.918640 591.488708,134.938278 
	C394.659210,135.060684 197.829590,135.000000 1.000000,135.000000 
	C1.000000,90.353767 1.000000,45.707539 1.000000,1.000000 
	C266.024902,1.000000 531.049805,1.000000 796.427734,1.337490 
	C772.822693,50.113808 735.906921,85.313622 686.866394,108.380737 
	C687.709839,109.118027 688.030701,109.545982 688.458435,109.751213 
	C708.237488,119.241386 727.142639,130.165741 742.954712,145.569916 
	C753.340637,155.688034 763.886108,165.856644 772.765259,177.246033 
	C781.370361,188.283936 788.000854,200.871948 795.350464,212.869919 
	C797.050781,215.645599 798.082397,215.898392 799.604492,212.879364 
	C801.374451,209.368652 803.194031,205.872498 805.197083,202.491470 
	C817.778503,181.255035 832.760620,162.063828 851.531616,145.780090 
	C867.151978,132.229645 884.005737,120.774445 902.562195,111.735680 
	C904.123657,110.975090 905.468750,109.770218 907.783264,108.171700 
	C858.413147,84.784218 821.686829,49.487980 798.000000,1.000000 
	C1062.545288,1.000000 1327.090576,1.000000 1592.000000,1.000000 
	C1592.000000,45.357582 1592.000000,89.716156 1591.531372,134.537369 
	C1397.932007,135.000000 1204.801270,134.961487 1011.670593,135.085815 
	C998.656311,135.094208 985.592163,135.826324 972.641846,137.125580 
	C956.423767,138.752655 940.919678,143.598190 926.154663,150.450775 
	C903.597351,160.919754 883.007324,174.354019 867.009766,193.682434 
	C858.419983,204.060654 850.023743,214.812592 843.149902,226.354568 
	C827.127014,253.258652 821.171326,283.083130 819.919250,314.096436 
	C819.409729,326.718231 818.534851,339.373901 816.882629,351.889587 
	C814.323425,371.275879 807.916321,389.682220 799.801697,407.359924 
	C785.655945,438.176117 765.317749,464.408051 739.309509,486.212280 
	C736.725037,488.378998 734.250183,490.676514 731.204895,493.373474 
	C773.602295,527.199890 815.509949,560.635620 857.311768,593.986877 
	C888.965576,564.305359 914.557251,530.801147 934.652588,493.000000 
	C969.878967,493.000000 1005.036743,493.236145 1040.188110,492.860077 
	C1051.133545,492.743011 1062.238770,491.868378 1072.957520,489.752686 
	C1091.089478,486.173767 1108.413208,479.962891 1124.672119,470.830292 
	C1149.655884,456.797119 1170.208618,438.107758 1186.257935,414.375916 
	C1197.255859,398.113281 1205.193237,380.429871 1210.591919,361.648682 
	C1212.849609,353.794891 1213.919434,345.599670 1215.647095,336.971375 
	C1135.804688,336.971375 1057.060181,336.971375 979.000000,336.971375 
	C979.000000,329.288635 978.786804,321.988434 979.046082,314.705078 
	C979.529602,301.120392 989.522400,290.928314 1002.891968,290.949280 
	C1072.379150,291.058197 1141.867554,291.209961 1211.353638,290.910461 
	C1245.536499,290.763123 1279.783447,292.773285 1313.891113,288.958160 
	C1326.696167,287.525848 1339.653931,286.524750 1352.171997,283.691742 
	C1368.690552,279.953369 1385.044922,275.202423 1401.109253,269.812073 
	C1426.227905,261.383575 1450.089355,249.860931 1472.048462,235.104095 
	C1488.518311,224.036087 1503.907471,211.320007 1519.454590,198.932129 
	C1530.863159,189.841904 1541.807373,180.163162 1552.847168,170.618042 
	C1561.683472,162.978149 1570.252930,155.028091 1579.140747,147.450119 
	C1583.177979,144.007843 1587.698608,141.132492 1592.000000,138.000000 
z"/>
<path fill="none" opacity="1.000000" stroke="none" 
	d="
M855.000000,771.000000 
	C570.412964,771.000000 285.825897,771.000000 1.000000,771.000000 
	C1.000000,559.972046 1.000000,348.943970 1.335320,137.544891 
	C2.499677,137.672211 3.423086,138.061508 4.143559,138.685196 
	C14.454783,147.611526 24.733139,156.575806 35.030472,165.518204 
	C47.556458,176.396011 60.285873,187.048813 72.576485,198.186081 
	C88.347755,212.477325 104.888092,225.866684 123.297806,236.418625 
	C141.973770,247.123154 161.130432,257.281586 180.939255,265.632996 
	C199.949646,273.647827 219.920151,279.295349 240.353973,283.374664 
	C261.626404,287.621338 283.025238,290.726379 304.582367,290.818756 
	C401.573608,291.234406 498.567657,290.993347 595.560669,291.041321 
	C597.803040,291.042450 600.128479,291.384338 602.273682,292.034271 
	C615.218384,295.956055 620.448669,306.633606 618.853516,318.487091 
	C617.642456,327.485901 606.916321,337.631226 595.167236,337.209442 
	C574.362183,336.462494 553.510925,337.055573 532.679321,336.982483 
	C515.840332,336.923401 498.981842,336.734863 482.376984,340.044769 
	C465.986633,343.311920 451.202942,350.092102 438.909241,361.634460 
	C429.379150,370.582092 422.289215,381.332581 417.031311,393.235443 
	C414.745209,398.410645 413.206207,403.905212 405.633667,402.216705 
	C404.812531,402.033630 403.813873,402.798645 402.870392,402.989594 
	C384.860413,406.634796 371.330383,417.161316 361.195129,431.796051 
	C352.352814,444.563965 349.759399,459.370789 351.017822,474.795288 
	C351.694031,483.083099 357.354980,490.948517 363.694031,492.670319 
	C363.986450,489.414154 363.829926,486.037140 364.660583,482.923523 
	C368.631866,468.038239 385.783112,463.766388 398.376129,474.766937 
	C407.490112,482.728363 417.029358,490.207306 426.459930,497.800781 
	C437.648743,506.809967 448.968781,515.656189 460.150726,524.673828 
	C472.880890,534.940063 485.468262,545.383606 498.214874,555.629150 
	C512.721497,567.289307 527.398926,578.737061 541.883972,590.423706 
	C554.998596,601.004700 567.871277,611.885864 581.000061,622.449036 
	C598.809326,636.778076 616.766968,650.922729 634.649597,665.160767 
	C649.469727,676.960388 664.122864,688.975647 679.116394,700.550232 
	C708.517334,723.247009 741.119812,740.013123 776.200867,752.054321 
	C801.155762,760.619812 826.650513,766.736084 852.991028,769.079651 
	C853.711975,769.143799 854.332642,770.334534 855.000000,771.000000 
z"/>
<path fill="#BE0F34" opacity="1.000000" stroke="none" 
	d="
M855.399963,771.000000 
	C854.332642,770.334534 853.711975,769.143799 852.991028,769.079651 
	C826.650513,766.736084 801.155762,760.619812 776.200867,752.054321 
	C741.119812,740.013123 708.517334,723.247009 679.116394,700.550232 
	C664.122864,688.975647 649.469727,676.960388 634.649597,665.160767 
	C616.766968,650.922729 598.809326,636.778076 581.000061,622.449036 
	C567.871277,611.885864 554.998596,601.004700 541.883972,590.423706 
	C527.398926,578.737061 512.721497,567.289307 498.214874,555.629150 
	C485.468262,545.383606 472.880890,534.940063 460.150726,524.673828 
	C448.968781,515.656189 437.648743,506.809967 426.459930,497.800781 
	C417.029358,490.207306 407.490112,482.728363 398.376129,474.766937 
	C385.783112,463.766388 368.631866,468.038239 364.660583,482.923523 
	C363.829926,486.037140 363.986450,489.414154 363.694031,492.670319 
	C357.354980,490.948517 351.694031,483.083099 351.017822,474.795288 
	C349.759399,459.370789 352.352814,444.563965 361.195129,431.796051 
	C371.330383,417.161316 384.860413,406.634796 402.870392,402.989594 
	C403.813873,402.798645 404.812531,402.033630 405.633667,402.216705 
	C413.206207,403.905212 414.745209,398.410645 417.031311,393.235443 
	C422.289215,381.332581 429.379150,370.582092 438.909241,361.634460 
	C451.202942,350.092102 465.986633,343.311920 482.376984,340.044769 
	C498.981842,336.734863 515.840332,336.923401 532.679321,336.982483 
	C553.510925,337.055573 574.362183,336.462494 595.167236,337.209442 
	C606.916321,337.631226 617.642456,327.485901 618.853516,318.487091 
	C620.448669,306.633606 615.218384,295.956055 602.273682,292.034271 
	C600.128479,291.384338 597.803040,291.042450 595.560669,291.041321 
	C498.567657,290.993347 401.573608,291.234406 304.582367,290.818756 
	C283.025238,290.726379 261.626404,287.621338 240.353973,283.374664 
	C219.920151,279.295349 199.949646,273.647827 180.939255,265.632996 
	C161.130432,257.281586 141.973770,247.123154 123.297806,236.418625 
	C104.888092,225.866684 88.347755,212.477325 72.576485,198.186081 
	C60.285873,187.048813 47.556458,176.396011 35.030472,165.518204 
	C24.733139,156.575806 14.454783,147.611526 4.143559,138.685196 
	C3.423086,138.061508 2.499677,137.672211 1.335320,137.086945 
	C1.000000,136.555557 1.000000,136.111099 1.000000,135.333328 
	C197.829590,135.000000 394.659210,135.060684 591.488708,134.938278 
	C623.073547,134.918640 652.903137,141.355713 680.816895,156.336807 
	C693.085327,162.921158 704.180298,171.049652 714.736023,180.116425 
	C734.449768,197.049408 748.762939,217.871429 759.572510,241.218628 
	C766.549500,256.287964 771.068176,272.161591 772.997620,288.709381 
	C773.698669,294.722473 774.727356,300.729919 774.931396,306.762787 
	C775.780884,331.876923 771.937805,356.299347 762.627563,379.668976 
	C755.999023,396.307281 747.080078,411.624939 735.915649,425.806335 
	C718.963989,447.338959 697.862366,463.424103 673.637451,475.609802 
	C665.874451,479.514709 657.499817,482.203674 649.272644,485.502045 
	C661.366638,495.287811 673.482300,505.163422 685.678833,514.938171 
	C696.501953,523.612305 707.407471,532.183594 718.290039,540.783508 
	C730.707886,550.596680 743.175903,560.346863 755.556030,570.207336 
	C766.169922,578.660889 776.661926,587.267395 787.260010,595.740906 
	C800.009705,605.934570 812.836609,616.031616 825.589294,626.221497 
	C837.719299,635.913879 849.765869,645.710938 861.906006,655.390564 
	C874.410400,665.360718 887.013794,675.206726 899.517395,685.177917 
	C910.126221,693.638123 920.615723,702.247925 931.228577,710.702881 
	C943.607422,720.564697 956.100403,730.283447 968.473877,740.151978 
	C979.211731,748.715942 989.864807,757.386475 1000.521301,766.051819 
	C1002.107544,767.341797 1003.506348,768.862183 1004.995911,770.638000 
	C957.979126,771.000000 910.958191,771.000000 863.351562,770.655212 
	C861.510559,770.540283 860.255310,770.770142 859.000000,771.000000 
	C857.933289,771.000000 856.866638,771.000000 855.399963,771.000000 
z"/>
<path fill="#BE0F34" opacity="1.000000" stroke="none" 
	d="
M1592.000000,137.625000 
	C1587.698608,141.132492 1583.177979,144.007843 1579.140747,147.450119 
	C1570.252930,155.028091 1561.683472,162.978149 1552.847168,170.618042 
	C1541.807373,180.163162 1530.863159,189.841904 1519.454590,198.932129 
	C1503.907471,211.320007 1488.518311,224.036087 1472.048462,235.104095 
	C1450.089355,249.860931 1426.227905,261.383575 1401.109253,269.812073 
	C1385.044922,275.202423 1368.690552,279.953369 1352.171997,283.691742 
	C1339.653931,286.524750 1326.696167,287.525848 1313.891113,288.958160 
	C1279.783447,292.773285 1245.536499,290.763123 1211.353638,290.910461 
	C1141.867554,291.209961 1072.379150,291.058197 1002.891968,290.949280 
	C989.522400,290.928314 979.529602,301.120392 979.046082,314.705078 
	C978.786804,321.988434 979.000000,329.288635 979.000000,336.971375 
	C1057.060181,336.971375 1135.804688,336.971375 1215.647095,336.971375 
	C1213.919434,345.599670 1212.849609,353.794891 1210.591919,361.648682 
	C1205.193237,380.429871 1197.255859,398.113281 1186.257935,414.375916 
	C1170.208618,438.107758 1149.655884,456.797119 1124.672119,470.830292 
	C1108.413208,479.962891 1091.089478,486.173767 1072.957520,489.752686 
	C1062.238770,491.868378 1051.133545,492.743011 1040.188110,492.860077 
	C1005.036743,493.236145 969.878967,493.000000 934.652588,493.000000 
	C914.557251,530.801147 888.965576,564.305359 857.311768,593.986877 
	C815.509949,560.635620 773.602295,527.199890 731.204895,493.373474 
	C734.250183,490.676514 736.725037,488.378998 739.309509,486.212280 
	C765.317749,464.408051 785.655945,438.176117 799.801697,407.359924 
	C807.916321,389.682220 814.323425,371.275879 816.882629,351.889587 
	C818.534851,339.373901 819.409729,326.718231 819.919250,314.096436 
	C821.171326,283.083130 827.127014,253.258652 843.149902,226.354568 
	C850.023743,214.812592 858.419983,204.060654 867.009766,193.682434 
	C883.007324,174.354019 903.597351,160.919754 926.154663,150.450775 
	C940.919678,143.598190 956.423767,138.752655 972.641846,137.125580 
	C985.592163,135.826324 998.656311,135.094208 1011.670593,135.085815 
	C1204.801270,134.961487 1397.932007,135.000000 1591.531372,135.000000 
	C1592.000000,135.750000 1592.000000,136.500000 1592.000000,137.625000 
z"/>
<path fill="#2EC7FF" opacity="1.000000" stroke="none" 
	d="
M797.750000,1.000000 
	C821.686829,49.487980 858.413147,84.784218 907.783264,108.171700 
	C905.468750,109.770218 904.123657,110.975090 902.562195,111.735680 
	C884.005737,120.774445 867.151978,132.229645 851.531616,145.780090 
	C832.760620,162.063828 817.778503,181.255035 805.197083,202.491470 
	C803.194031,205.872498 801.374451,209.368652 799.604492,212.879364 
	C798.082397,215.898392 797.050781,215.645599 795.350464,212.869919 
	C788.000854,200.871948 781.370361,188.283936 772.765259,177.246033 
	C763.886108,165.856644 753.340637,155.688034 742.954712,145.569916 
	C727.142639,130.165741 708.237488,119.241386 688.458435,109.751213 
	C688.030701,109.545982 687.709839,109.118027 686.866394,108.380737 
	C735.906921,85.313622 772.822693,50.113808 796.890381,1.337490 
	C797.000000,1.000000 797.500000,1.000000 797.750000,1.000000 
z"/>
<path fill="#FFFFFF" opacity="1.000000" stroke="none" 
	d="
M859.399963,771.000000 
	C860.255310,770.770142 861.510559,770.540283 862.882935,770.655212 
	C861.933289,771.000000 860.866638,771.000000 859.399963,771.000000 
z"/>
</svg>